<?xml version="1.0" encoding="utf-8"?>
<!-- Generator: Adobe Illustrator 16.0.4, SVG Export Plug-In . SVG Version: 6.00 Build 0)  -->
<!DOCTYPE svg PUBLIC "-//W3C//DTD SVG 1.1//EN" "http://www.w3.org/Graphics/SVG/1.1/DTD/svg11.dtd">
<svg version="1.1" id="Calque_1" xmlns="http://www.w3.org/2000/svg" xmlns:xlink="http://www.w3.org/1999/xlink" x="0px" y="0px"
	 width="158px" height="171px" viewBox="11.45 -34.768 158 171" enable-background="new 11.45 -34.768 158 171"
	 xml:space="preserve">
<g>
	<path fill="#049D4A" d="M53.027-13.711c10.257,0,20.413,7.917,22.228,9.415c0.189,0.145,0.291,0.232,0.291,0.232
		c0.552,0.407,1.25,0.64,1.991,0.64c1.874,0,3.385-1.512,3.385-3.385c0-0.683-0.203-1.321-0.552-1.845c0,0-0.014-0.014-0.03-0.058
		c-0.406-0.771-5.738-10.141-21.806-10.141c-16.243,0-20.571,11.695-20.818,12.436C38.006-6.927,42.116-13.711,53.027-13.711z"/>
	<path fill="#049D4A" d="M56.339,5.146c-8.426,0-12.886,8.66-12.886,8.66s4.605,1.409,14.688,1.206
		c10.096-0.203,16.185-1.148,16.678-2.078C74.819,12.933,68.499,5.146,56.339,5.146z"/>
	<path fill="#049D4A" d="M76.112,44.008c-0.77,0.115-2.062,1.118-2.062,2.179c0,1.061,3.355,2.644,3.355,2.644
		c1.293-0.058,4.635-0.538,4.94-2.412C82.635,44.531,76.868,43.891,76.112,44.008z"/>
	<path fill="#049D4A" d="M105.968,12.933c0.495,0.93,6.582,1.874,16.678,2.078c10.082,0.203,14.688-1.206,14.688-1.206
		s-4.46-8.66-12.871-8.66C112.302,5.146,105.968,12.933,105.968,12.933z"/>
	<path fill="#049D4A" d="M134.602,48.583c-11.007,0-19.188-6.301-22.538-9.369c5.242,5.341,11.156,8.469,16.159,10.168
		c-0.727,2.324-3.864,11.143-9.429,11.143c-6.406,0-16.054,0.479-20.935-12.407c0,0-5.288,1.236-7.468,1.119
		c-2.179,0.115-7.468-1.119-7.468-1.119c-4.881,12.885-14.528,12.407-20.935,12.407c-5.564,0-8.701-8.819-9.428-11.143
		c4.989-1.694,10.881-4.811,16.113-10.123c-3.369,3.083-11.52,9.324-22.49,9.324c-6.886,0-8.688-2.092-8.89-2.354
		c0.377,1.104,12.885,36.421,27.836,49.134c0,0-22.445-31.221-23.826-43.773c0,0,1.991-0.014,5.1-0.596
		c0.451,1.351,1.395,4.083,5.187,10.125c5.753,9.167,20.993,4.824,27.575,4.402c6.58-0.403,11.229-9.455,11.229-9.455
		s4.649,9.052,11.23,9.459c6.596,0.421,21.821,4.766,27.589-4.402c3.793-6.044,4.722-8.775,5.171-10.126
		c3.123,0.582,5.114,0.596,5.114,0.596c-1.381,12.552-23.842,43.773-23.842,43.773c14.95-12.713,27.459-48.029,27.837-49.133
		C143.289,46.492,141.488,48.583,134.602,48.583z"/>
	<path fill="#049D4A" d="M95.755,94.405c-3.123-7.235-0.363-11.709-0.363-11.709h-9.995c0,0,2.76,4.474-0.348,11.709
		c-3.123,7.235,2.179,17.521,1.815,19.396c-0.348,1.889-1.96,5.361-1.394,6.886c0,0,1.597,0.508,3.457,0.857h2.935
		c1.859-0.348,3.457-0.857,3.457-0.857c0.58-1.526-1.047-4.998-1.395-6.886C93.575,111.927,98.863,101.641,95.755,94.405z"/>
	<path fill="#049D4A" d="M90.393,66.701c0,0-23.404,0.495-29.346,1.846l5.652,1.118c0,0,20.106-1.118,23.694-1.118
		c3.588,0,23.695,1.118,23.695,1.118l5.651-1.118C113.798,67.194,90.393,66.701,90.393,66.701z"/>
	<path fill="#049D4A" d="M103.396,48.832c0,0,3.342-1.583,3.342-2.644c0-1.061-1.293-2.064-2.048-2.179
		c-0.771-0.117-6.538,0.522-6.232,2.412C98.747,48.293,102.103,48.774,103.396,48.832z"/>
	<path fill="#049D4A" d="M103.251-3.426c0.74,0,1.438-0.232,1.99-0.64c0,0,0.102-0.087,0.29-0.232
		c1.815-1.496,11.972-9.415,22.229-9.415c10.91,0,15.022,6.784,15.312,7.293c-0.248-0.74-4.577-12.435-20.819-12.435
		c-16.068,0-21.4,9.371-21.808,10.14c-0.014,0.044-0.029,0.058-0.029,0.058c-0.35,0.523-0.553,1.163-0.553,1.846
		C99.865-4.937,101.377-3.426,103.251-3.426z"/>
</g>
</svg>
