<?xml version="1.0" encoding="utf-8"?>
<!-- Generator: Adobe Illustrator 16.0.4, SVG Export Plug-In . SVG Version: 6.00 Build 0)  -->
<!DOCTYPE svg PUBLIC "-//W3C//DTD SVG 1.1//EN" "http://www.w3.org/Graphics/SVG/1.1/DTD/svg11.dtd">
<svg version="1.1" id="Calque_1" xmlns="http://www.w3.org/2000/svg" xmlns:xlink="http://www.w3.org/1999/xlink" x="0px" y="0px"
	 width="181.901px" height="105.465px" viewBox="0 0 181.901 105.465" enable-background="new 0 0 181.901 105.465"
	 xml:space="preserve">
<path d="M5.831,57.61c2.851,4.103,6.576,7.503,10.762,9.839c4.169,2.326,8.715,3.556,13.14,3.556
	c20.831,0,18.148,11.675,18.148,11.675c-0.419,11.097-15.876,8.59-15.876,8.59c-1.984-0.28-2.178,2.085-2.178,2.085
	c-0.812,3.332,1.795,3.962,1.795,3.962c19,6.168,41.099,8.149,59.304,8.149c0.008,0,0.017,0,0.025,0c0.007,0,0.017,0,0.024,0
	c18.206,0,40.306-1.981,59.306-8.149c0,0,2.604-0.63,1.793-3.962c0,0-0.194-2.365-2.18-2.085c0,0-15.46,2.507-15.875-8.59
	c0,0-2.681-11.675,18.146-11.675c4.425,0,8.971-1.229,13.142-3.556c4.187-2.336,7.909-5.736,10.763-9.839
	c4.271-6.138,6.309-13.335,5.738-20.264c-0.288-3.498-1.221-6.75-2.773-9.667c-1.652-3.105-3.926-5.678-6.757-7.651
	c-3.655-2.539-8.03-3.883-12.652-3.883c-1.987,0-3.998,0.249-5.989,0.731c-1.511,0.357-3.014,0.561-4.635,0.561
	c-6.761,0-12.729-3.3-16.422-8.38c-1.227-1.612-2.623-3.048-4.177-4.28c-2.76-2.195-5.881-3.657-9.271-4.347
	c-1.413-0.286-2.86-0.43-4.3-0.43c-5.91,0-11.761,2.436-16.477,6.865c-0.147,0.139-0.495,0.479-0.53,0.509
	c-1.799,1.685-4.217,2.718-6.877,2.718h0.002c-2.659,0-5.079-1.033-6.877-2.718c-0.036-0.032-0.382-0.37-0.531-0.509
	C78.829,2.436,72.979,0,67.066,0c-1.441,0-2.887,0.144-4.3,0.43c-3.392,0.69-6.512,2.152-9.27,4.347
	c-1.554,1.232-2.951,2.668-4.177,4.28c-3.69,5.082-9.661,8.38-16.42,8.38c-1.623,0-3.124-0.202-4.637-0.561
	c-1.985-0.482-4.001-0.731-5.985-0.731c-4.624,0-8.997,1.344-12.655,3.883c-2.831,1.973-5.102,4.545-6.757,7.651
	c-1.55,2.917-2.485,6.168-2.771,9.667C-0.478,44.277,1.56,51.474,5.831,57.61z M139.992,32.513
	c4.978-7.158,12.541-11.163,19.633-11.163c3.455,0,6.8,0.95,9.68,2.955c8.782,6.108,9.896,19.692,2.492,30.334
	c-4.981,7.157-12.542,11.162-19.632,11.162c-3.457,0-6.801-0.951-9.677-2.954C133.52,56.608,132.497,43.278,139.992,32.513z
	 M94.317,24.662c2.316-11.398,11.111-19.46,20.511-19.46c1.083,0,2.174,0.109,3.265,0.331c10.549,2.143,17.011,14.182,14.427,26.891
	c-2.316,11.393-11.11,19.455-20.511,19.455c-1.083,0-2.175-0.107-3.265-0.329C98.196,49.406,91.737,37.367,94.317,24.662z
	 M90.95,50.098c3.102,0,5.938,1.032,8.235,2.769c2.573,1.883,5.438,3.154,8.532,3.782c1.411,0.286,2.858,0.432,4.298,0.432h-0.003
	c2.34,0,4.67-0.381,6.927-1.119c13.932-3.927,12.017,13.065,12.017,13.065c-3.756,27.692-35.162,29.616-39.98,29.749
	c-0.007,0-0.017,0-0.024,0c-0.008,0-0.017,0-0.025,0c-4.82-0.133-36.224-2.059-39.98-29.749c0,0-1.915-16.99,12.015-13.065
	c2.257,0.738,4.588,1.119,6.93,1.119h-0.004c1.441,0,2.887-0.147,4.298-0.432c3.093-0.628,5.96-1.899,8.53-3.782
	C85.01,51.129,87.848,50.098,90.95,50.098z M63.805,5.532c1.088-0.222,2.182-0.331,3.263-0.331c9.403,0,18.196,8.062,20.513,19.46
	c2.58,12.705-3.88,24.742-14.429,26.887c-1.09,0.222-2.18,0.327-3.264,0.329c-9.397,0-18.195-8.062-20.509-19.455
	C46.794,19.714,53.254,7.675,63.805,5.532z M12.593,24.305c2.879-2.005,6.223-2.955,9.682-2.955c7.09,0,14.655,4.005,19.632,11.163
	c7.494,10.768,6.473,24.097-2.497,30.334c-2.877,2.003-6.222,2.954-9.674,2.954c-7.092,0-14.655-4.007-19.634-11.162
	C2.697,43.997,3.813,30.413,12.593,24.305z"/>
</svg>
