<?xml version="1.0" encoding="utf-8"?>
<!-- Generator: Adobe Illustrator 16.0.4, SVG Export Plug-In . SVG Version: 6.00 Build 0)  -->
<!DOCTYPE svg PUBLIC "-//W3C//DTD SVG 1.1//EN" "http://www.w3.org/Graphics/SVG/1.1/DTD/svg11.dtd">
<svg version="1.1" id="Calque_1" xmlns="http://www.w3.org/2000/svg" xmlns:xlink="http://www.w3.org/1999/xlink" x="0px" y="0px"
	 width="418.421px" height="485.79px" viewBox="0 0 418.421 485.79" enable-background="new 0 0 418.421 485.79"
	 xml:space="preserve">
<g>
	<path fill="#049D4A" d="M142.041,93.67c1.299,1.484,2.895,2.616,4.789,3.396c1.893,0.779,4.051,1.169,6.477,1.169
		c2.4,0,4.541-0.39,6.421-1.169c1.88-0.78,3.471-1.912,4.77-3.396c1.3-1.485,2.295-3.297,2.988-5.438
		c0.692-2.14,1.039-4.559,1.039-7.256c0-2.673-0.347-5.079-1.039-7.22c-0.693-2.14-1.688-3.953-2.988-5.438
		c-1.299-1.484-2.889-2.623-4.77-3.415c-1.88-0.792-4.021-1.187-6.421-1.187c-2.425,0-4.583,0.396-6.477,1.187
		c-1.894,0.792-3.489,1.93-4.789,3.415c-1.299,1.485-2.295,3.298-2.988,5.438c-0.693,2.141-1.04,4.547-1.04,7.22
		c0,2.697,0.347,5.116,1.04,7.256C139.746,90.373,140.741,92.186,142.041,93.67z"/>
	<path fill="#049D4A" d="M389.754,266.704c-2.152-13.459-5.453-27.069-8.672-40.208c-7.491-30.84-14.144-60.009-8.163-89.059H45.754
		c5.743,28.906-0.834,57.871-8.234,88.478c-3.243,13.115-6.534,26.712-8.667,40.174c-4.005,25.05-7.215,72.696,16.201,111.061
		c21.487,35.127,52.132,45.365,84.615,56.128c7.119,2.372,14.296,4.844,21.63,7.577l5.51,1.938
		c11.211,4.019,37.556,13.438,42.398,23.849c1.753,3.596,5.349,5.92,9.372,6.015l1.248,0.024c0,0,0.128,0,0.166,0
		c4.006,0,7.691-2.348,9.439-6.015c4.81-10.029,29.568-18.749,41.432-22.987c2.433-0.801,4.571-1.539,6.343-2.248
		c7.357-2.796,14.615-5.157,21.735-7.539c32.421-10.786,63.104-21.029,84.558-56.18
		C390.878,349.357,396.645,309.887,389.754,266.704z M290.6,316.088c1.471-0.687,3.124-1.034,4.7-1.034
		c6.4,0,11.624,5.238,11.624,11.597c0,6.353-5.229,11.548-11.624,11.548c-5.829,0-10.691-4.419-11.453-10.029l-47.895-0.119
		l-19.572,30.26c2.571,2.138,4.124,5.381,4.124,8.857c0,6.392-5.11,11.534-11.549,11.534c-6.366,0-11.533-5.143-11.533-11.534
		c0-3.643,1.69-7.029,4.557-9.21l-19.301-29.936l-48.575-0.057c-0.624,5.719-5.533,10.229-11.491,10.229
		c-6.344,0-11.501-5.195-11.501-11.548c0-6.357,5.157-11.597,11.501-11.597c1.952,0,3.805,0.538,5.453,1.386l23.673-36.488
		l-23.859-37.069c-1.514,0.771-3.229,1.109-4.924,1.109c-6.353,0-11.534-5.167-11.534-11.562c0-6.357,5.182-11.548,11.534-11.548
		c6.039,0,11.054,4.762,11.511,10.705l48.565,0.023l19.597-30.14c-2.829-2.21-4.567-5.553-4.567-9.239
		c0-6.371,5.182-11.515,11.605-11.515c6.377,0,11.51,5.147,11.51,11.515c0,3.62-1.671,6.939-4.404,9.077l19.554,30.374l48.108,0.052
		c0.504-5.957,5.485-10.539,11.571-10.539c6.311,0,11.501,5.187,11.501,11.525c0,6.414-5.19,11.596-11.501,11.596
		c-1.747,0-3.452-0.353-4.957-1.143l-23.749,36.612L290.6,316.088z"/>
	<path fill="#049D4A" d="M388.234,70.142L346.86,28.815c-3.076-3.105-7.776-3.929-11.687-2.181
		c-24.035,10.843-46.766,16.362-67.596,16.362c-33.512,0-50.17-14.105-50.817-14.634c-0.448-0.329-0.881-0.695-1.314-1.015
		l-0.9-0.528c-3.924-2.553-9.01-2.134-12.558,0.881c-0.729,0.643-17.491,14.691-50.946,14.691c-20.782,0-43.57-5.467-67.548-16.373
		c-3.962-1.757-8.672-0.876-11.71,2.144L30.376,69.532c-6.71,5.329-5.181,9.401,8.93,46.856c0.643,1.747,1.338,3.548,2.028,5.376
		h336.152c0.571-1.538,1.195-3.19,1.748-4.719C393.469,79.523,395.007,75.475,388.234,70.142z M90.075,88.362
		c0.754,2.153,1.781,3.966,3.081,5.438c1.299,1.472,2.814,2.592,4.547,3.359c1.731,0.768,3.588,1.151,5.568,1.151
		c1.138,0,2.177-0.056,3.118-0.167c0.939-0.111,1.812-0.303,2.617-0.576c0.803-0.271,1.57-0.625,2.301-1.058
		c0.729-0.433,1.467-0.971,2.209-1.615c0.297-0.247,0.618-0.451,0.965-0.612c0.346-0.161,0.706-0.241,1.076-0.241
		c0.297,0,0.594,0.055,0.891,0.167c0.297,0.111,0.581,0.304,0.854,0.576l4.974,5.233c-2.178,2.846-4.906,4.992-8.185,6.44
		c-3.279,1.448-7.158,2.171-11.637,2.171c-4.107,0-7.789-0.698-11.042-2.097c-3.255-1.397-6.014-3.327-8.278-5.79
		c-2.264-2.463-4.003-5.382-5.215-8.76c-1.213-3.377-1.819-7.046-1.819-11.005c0-4.033,0.692-7.739,2.079-11.117
		c1.386-3.377,3.322-6.291,5.809-8.741s5.462-4.355,8.927-5.717c3.465-1.36,7.288-2.041,11.469-2.041
		c2.029,0,3.941,0.18,5.735,0.539c1.794,0.358,3.471,0.853,5.03,1.484c1.559,0.63,2.994,1.386,4.306,2.264
		c1.311,0.879,2.474,1.85,3.489,2.914l-4.231,5.679c-0.272,0.347-0.594,0.663-0.965,0.946c-0.372,0.285-0.891,0.427-1.559,0.427
		c-0.445,0-0.867-0.098-1.263-0.297c-0.396-0.198-0.816-0.438-1.262-0.724c-0.446-0.285-0.934-0.594-1.466-0.928
		c-0.532-0.334-1.164-0.644-1.893-0.928c-0.73-0.284-1.584-0.525-2.561-0.724c-0.978-0.198-2.123-0.296-3.434-0.296
		c-2.277,0-4.356,0.402-6.236,1.206c-1.88,0.805-3.495,1.956-4.843,3.452c-1.349,1.498-2.401,3.31-3.155,5.438
		c-0.755,2.128-1.132,4.516-1.132,7.164C88.943,83.748,89.32,86.21,90.075,88.362z M179.344,91.889
		c-1.349,3.366-3.248,6.292-5.697,8.778c-2.45,2.487-5.4,4.436-8.853,5.846c-3.452,1.411-7.281,2.115-11.488,2.115
		c-4.207,0-8.042-0.705-11.506-2.115s-6.428-3.359-8.89-5.846c-2.462-2.487-4.368-5.413-5.717-8.778
		c-1.349-3.365-2.022-7.002-2.022-10.913c0-3.91,0.673-7.547,2.022-10.912c1.349-3.365,3.254-6.286,5.717-8.76
		c2.462-2.475,5.425-4.417,8.89-5.828s7.299-2.116,11.506-2.116c4.207,0,8.036,0.711,11.488,2.134
		c3.453,1.424,6.403,3.372,8.853,5.847c2.45,2.475,4.349,5.395,5.697,8.76c1.349,3.365,2.023,6.991,2.023,10.875
		C181.367,84.886,180.693,88.524,179.344,91.889z M248.179,108.035h-11.062V76.931c0-1.51,0.074-3.143,0.222-4.9l-14.327,27.801
		c-0.445,0.867-1.045,1.522-1.8,1.967c-0.755,0.445-1.614,0.668-2.58,0.668h-1.706c-0.966,0-1.826-0.223-2.58-0.668
		c-0.755-0.445-1.354-1.1-1.8-1.967l-14.403-27.838c0.099,0.867,0.173,1.727,0.223,2.58c0.05,0.854,0.075,1.64,0.075,2.358v31.104
		h-11.062V53.992h9.576c0.544,0,1.021,0,1.43,0c0.408,0,0.773,0.062,1.095,0.186c0.321,0.125,0.613,0.316,0.873,0.576
		s0.513,0.625,0.76,1.096l13.919,27.458c0.496,0.943,0.972,1.92,1.429,2.937c0.458,1.016,0.897,2.055,1.319,3.121
		c0.419-1.091,0.865-2.149,1.336-3.178c0.47-1.027,0.952-2.025,1.447-2.991l13.882-27.348c0.247-0.47,0.501-0.836,0.761-1.096
		s0.552-0.452,0.873-0.576c0.321-0.124,0.686-0.186,1.095-0.186c0.408,0,0.884,0,1.429,0h9.577V108.035z M317.885,108.035h-11.062
		V76.931c0-1.51,0.074-3.143,0.223-4.9l-14.327,27.801c-0.446,0.867-1.046,1.522-1.801,1.967c-0.755,0.445-1.614,0.668-2.579,0.668
		h-1.707c-0.965,0-1.826-0.223-2.58-0.668c-0.755-0.445-1.354-1.1-1.8-1.967L267.85,71.993c0.098,0.867,0.174,1.727,0.224,2.58
		c0.048,0.854,0.073,1.64,0.073,2.358v31.104h-11.062V53.992h9.577c0.544,0,1.021,0,1.429,0c0.408,0,0.773,0.062,1.095,0.186
		c0.322,0.125,0.612,0.316,0.872,0.576s0.514,0.625,0.761,1.096l13.92,27.458c0.495,0.943,0.971,1.92,1.429,2.937
		c0.457,1.016,0.896,2.055,1.318,3.121c0.42-1.091,0.865-2.149,1.336-3.178c0.47-1.027,0.952-2.025,1.447-2.991l13.882-27.348
		c0.247-0.47,0.501-0.836,0.761-1.096s0.552-0.452,0.873-0.576c0.322-0.124,0.686-0.186,1.095-0.186c0.408,0,0.884,0,1.429,0h9.577
		V108.035z M340.526,108.035h-12.62V53.955h12.62V108.035z"/>
</g>
</svg>
