<?xml version="1.0" encoding="utf-8"?>
<!-- Generator: Adobe Illustrator 16.0.0, SVG Export Plug-In . SVG Version: 6.00 Build 0)  -->
<!DOCTYPE svg PUBLIC "-//W3C//DTD SVG 1.1//EN" "http://www.w3.org/Graphics/SVG/1.1/DTD/svg11.dtd">
<svg version="1.1"
	 id="svg2" inkscape:version="0.48.4 r9939" sodipodi:docname="BN.svg" xmlns:dc="http://purl.org/dc/elements/1.1/" xmlns:cc="http://creativecommons.org/ns#" xmlns:rdf="http://www.w3.org/1999/02/22-rdf-syntax-ns#" xmlns:svg="http://www.w3.org/2000/svg" xmlns:sodipodi="http://sodipodi.sourceforge.net/DTD/sodipodi-0.dtd" xmlns:inkscape="http://www.inkscape.org/namespaces/inkscape"
	 xmlns="http://www.w3.org/2000/svg" xmlns:xlink="http://www.w3.org/1999/xlink" x="0px" y="0px" width="208.303px"
	 height="207.72px" viewBox="0 0 208.303 207.72" enable-background="new 0 0 208.303 207.72" xml:space="preserve">
<sodipodi:namedview  inkscape:window-maximized="1" inkscape:window-y="-8" inkscape:current-layer="layer1" inkscape:pageshadow="2" inkscape:pageopacity="0.0" inkscape:window-x="-8" inkscape:window-height="1018" inkscape:document-units="px" inkscape:window-width="1920" showgrid="false" inkscape:cy="513.33798" inkscape:cx="346.23011" inkscape:zoom="0.98994949" borderopacity="1.0" bordercolor="#666666" pagecolor="#ffffff" id="base">
	</sodipodi:namedview>
<g id="layer1" inkscape:groupmode="layer" inkscape:label="Calque 1">

		<g id="g3100" transform="translate(29.294424,-27.274119)" inkscape:export-filename="N:\bloodbowl\illustration BB\Logo BN\BNtransp_1000px.png" inkscape:export-ydpi="433.36002" inkscape:export-xdpi="433.36002">
		<path id="path3020" inkscape:connector-curvature="0" fill="#FFFFFF" d="M37.187,135.765c-2.066-0.897-7.07-5.613-10.04-9.46
			c-6.327-8.197-7.399-17.979-3.245-29.609c1.127-3.157,2.197-6.854,2.378-8.215c0.281-2.124,0.436-2.386,1.084-1.848
			c0.926,0.769,5.084,6.978,10.752,16.054c2.342,3.751,6.022,9.178,8.179,12.061c3.046,4.072,3.92,5.614,3.92,6.914
			c0,2.288-4.061,10.083-6.633,12.734C41.315,136.729,40.036,137.003,37.187,135.765L37.187,135.765L37.187,135.765z"/>
		<path id="path3022" inkscape:connector-curvature="0" fill="#FFFFFF" d="M36.269,134.712c-5.129-3.42-11.297-11.139-13.149-16.457
			c-0.737-2.116-0.929-4.086-0.897-9.254c0.039-6.278,0.132-6.852,2.147-13.057c1.158-3.568,2.106-6.908,2.106-7.42
			c0-1.811,0.88-1.429,2.705,1.174c1.017,1.449,6.051,8.953,11.188,16.675c6.62,9.952,9.34,14.457,9.34,15.473
			c0,2.108-3.829,9.392-6.283,11.953C40.878,136.458,39.206,136.671,36.269,134.712z"/>
		<path id="path3074" inkscape:connector-curvature="0" fill="#FFFFFF" d="M102.713,141.28c-4.063-0.823-7.489-2.644-10.403-5.524
			c-1.771-1.752-2.965-3.372-3.89-5.28c-1.1-2.268-1.622-4.265-2.229-8.51c-0.29-2.033-0.618-3.894-0.728-4.136
			c-0.319-0.701-0.839-0.854-3.012-0.892c-1.403-0.023-2.053-0.101-2.103-0.25c-0.088-0.264,0.489-0.668,4.109-2.882
			c5.794-3.545,9.927-6.82,15.462-12.255c5.755-5.649,8.166-8.484,14.964-17.594c6.414-8.596,9.698-12.5,10.513-12.5
			c0.472,0,0.282,0.517-1.293,3.537c-3.419,6.556-3.701,7.301-3.589,9.473c0.091,1.77,0.519,2.65,2.821,5.819
			c3.724,5.123,5.71,10.582,6.273,17.242c0.961,11.368-3.226,22.854-10.721,29.413c-3.016,2.639-5.398,3.85-8.713,4.428
			C108.113,141.729,104.729,141.689,102.713,141.28L102.713,141.28z"/>
		<path id="path3076" sodipodi:nodetypes="csssccsccssssssscsscssscc" inkscape:connector-curvature="0" fill="#FFFFFF" d="
			M103.547,143.945c-2.624-0.296-5.362-1.006-7.084-1.838c-4.2-2.029-8.144-6.083-10.448-10.738
			c-0.855-1.729-1.215-2.75-1.859-5.275c-0.438-1.723-0.875-3.754-0.97-4.516c-0.095-0.761-0.263-1.494-0.376-1.629
			c-0.299-0.361-0.36-2.562-2.747-2.685c-2.417-0.124-4.706,1.525-4.87,0.87c-0.177-0.705,0.062-1.238,0.957-2.124
			c1.176-1.165,2.483-2.073,6.564-4.558c7.974-4.854,13.677-9.756,21.088-18.12c2.309-2.606,4.957-5.953,8.549-10.804
			c1.854-2.504,4.18-5.558,5.168-6.785c2.069-2.571,5.407-6.07,7.002-7.339c2.053-1.634,3.812-2.157,4.756-1.414
			c0.919,0.723-1.349,0.365-2.703,3.401c-0.701,1.571-6.574,11.995-7.219,13.045c-0.137,0.224,3.267,1.485,4.761,3.286
			c4.636,5.585,6.081,8.672,7.022,15.002c0.27,1.809,0.319,3.396,0.322,10.179c0.003,9.223-0.051,9.684-1.604,13.6
			c-2.564,6.469-6.206,11.518-10.537,14.609c-1.393,0.992-4.216,2.415-5.803,2.922C110.729,143.925,106.665,144.296,103.547,143.945
			z"/>
		<path id="path3078" inkscape:connector-curvature="0" fill="#FFFFFF" d="M64.856,156.518c-1.401-0.737-2.121-2.016-2.422-4.298
			c-0.1-0.764-0.159-3.436-0.131-5.938l0.053-4.55l1.102,2.496c2.084,4.72,3.269,8.026,3.518,9.817
			c0.196,1.416-0.442,2.781-1.291,2.761C65.523,156.803,65.15,156.673,64.856,156.518z"/>
		<path id="path3080" inkscape:connector-curvature="0" fill="#FFFFFF" d="M63.954,159.161c-1.138-0.202-1.895-0.749-2.709-1.958
			c-1.429-2.121-2.045-4.885-2.04-9.138c0.009-6.103,1.547-10.106,3.678-9.572c1.319,0.331,4.779,7.375,6.323,12.876
			c1.041,3.706,0.939,5.255-0.431,6.625c-0.448,0.449-1.045,0.839-1.448,0.947C66.331,159.208,64.786,159.308,63.954,159.161
			L63.954,159.161z"/>
		<path id="path3082" inkscape:connector-curvature="0" fill="#FFFFFF" d="M50.286,151.605c-0.322-0.603-0.085-3.056,0.455-4.701
			c0.898-2.739,3.074-6.696,3.682-6.696c0.652,0-0.682,6.647-1.871,9.324c-0.433,0.974-1.585,2.462-1.906,2.462
			C50.562,151.994,50.4,151.818,50.286,151.605z"/>
		<path id="path3084" inkscape:connector-curvature="0" fill="#FFFFFF" d="M50.392,154.996c-0.906-0.512-2.028-1.632-2.5-2.498
			c-1.096-2.011-0.754-5.273,0.896-8.563c2.356-4.701,4.833-7.084,6.948-6.688c0.864,0.162,1.186,0.63,1.352,1.972
			c0.555,4.466-1.729,12.312-4.38,15.052C51.755,155.253,51.174,155.436,50.392,154.996L50.392,154.996z"/>
		<path id="path3088" sodipodi:nodetypes="aaacaasszzcassaaa" inkscape:connector-curvature="0" fill="#FFFFFF" d="M59.589,198.678
			c-11.064-2.388-20.471-10.791-27.941-19.294c-2.02-2.298-2.866-5.407-4.199-8.161c-0.206-0.424-0.585-1.287-0.585-1.287
			s-0.741-2.707-0.241-3.916c0.854-2.067,2.832-3.984,5.02-4.452c2.037-0.436,5.963,1.871,5.963,1.871
			c4.179,1.235,9.879,4.322,15.157,4.876c3.479,0.364,7.759-0.402,10.44-1.071c2.682-0.67,6.692-2.131,11.987-4.185
			s8.458-7.726,12.919-7.062c4.46,0.663,5.095,3.413,6.301,6.068c0.728,1.6,0.269,3.148,0.258,5.267
			c-0.009,1.741-0.1,2.467-0.483,3.872c-1.274,4.656-3.574,10.277-7.009,14.342c-4.018,4.755-9.443,8.456-15.176,10.884
			C68.128,198.07,63.698,199.565,59.589,198.678L59.589,198.678z"/>

			<path id="path3092" sodipodi:nodetypes="cscssscssssssscscssssssscssssssscssssssscssssccccssssssscsssscsssssssscsssscssssssscsc" inkscape:connector-curvature="0" fill="#FFFFFF" d="
			M117.511,234.809c-4.943-0.294-6.328-0.53-16.417-2.798c-3.771-0.848-7.657-1.824-8.634-2.169
			c-2.327-0.823-6.343-2.642-12.673-5.74c-11.313-5.538-14.177-6.462-19.936-6.429c-2.968,0.018-5.209,0.352-11.28,1.681
			c-7.268,1.592-11.851,2.067-19.906,2.068c-15.467,0.001-29.775-2.639-39.949-7.374c-3.313-1.541-4.842-2.556-8.113-5.381
			c-0.965-0.834-2.241-1.794-2.834-2.134c-1.277-0.729-2.784-2.845-4.249-5.96c-1.907-4.059-2.945-5.76-2.801-20.162
			c0.11-10.956,1.141-13.443,1.768-16.836c1.093-5.912,5.023-16.549,9.154-24.771c1.317-2.622,2.513-5.267,2.656-5.878
			c0.309-1.313,1.092-2.934,2.522-5.22c2.524-4.033,3.115-6.028,3.119-10.533c0.003-3.625-0.185-4.797-1.446-9.029
			c-0.853-2.862-1.195-4.734-1.613-8.81c-1.08-10.531-0.876-28.017,0.409-35.016c0.325-1.771,1.369-8.088,2.428-11.151
			c2.162-6.253,3.657-9.47,6.478-13.312c0.637-0.867,1.833-2.935,2.439-3.938c3.079-5.095,8.312-7.18,17.322-8.389
			c2.546-0.342,12.257-0.341,15.624,0.002c6.853,0.697,12.682,1.728,20.044,3.541c10.762,2.651,16.262,4.936,27.742,11.524
			c2.595,1.488,5.231,2.901,5.859,3.139c2.937,1.111,5.245,0.974,12.551-0.75c7.178-1.692,8.999-2.025,14.493-2.653
			c8.003-0.913,19.375-1.126,24.566-0.458c7.533,0.969,19.72,3.944,24.976,6.099c1.564,0.641,2.262,1.064,3.163,1.925
			c0.637,0.607,1.851,1.575,2.698,2.151c2.453,1.667,3.642,3.187,5.663,7.241c2.767,5.548,4.817,9.478,5.591,19.408
			c0.376,4.834-0.633,14.369-0.962,16.409c-0.562,3.479-3.004,14.89-3.737,17.46c-1.816,6.357-4.405,12.354-8.686,20.117
			c-3.734,6.775-4.706,9.152-4.967,12.152c-0.173,1.991,0.051,3.552,1.341,9.354c2.564,11.53,3.423,19.496,3.231,29.986
			c-0.241,13.298-2.391,23.065-7.271,33.055c-4.24,8.68-9.564,14.075-15.525,15.735c-3.125,0.87-8.124,1.52-14.252,1.852
			C123.765,235.055,121.62,235.052,117.511,234.809L117.511,234.809L117.511,234.809z M125.657,228.549
			c7.068,1.374,14.789-2.05,17.86-4.043c2.498-1.621,5.699-5.181,8.654-12.839c2.188-5.672,2.879-6.873,3.537-9.919
			c2.317-10.724,1.924-26.676-0.45-39.281c-0.626-3.324-0.81-6.535-2.147-10.51c-2.474-7.348-2.337-6.974,5.293-22.706
			c4.012-8.274,4.937-11.457,6.914-16.594c4.018-10.438,6.021-20.814,6.016-27.71c-0.005-6.024-0.455-10.604-3.457-16.979
			c-3.03-6.438-7.486-9.895-12.411-12.213c-9.072-4.27-20.509-6.385-32.23-5.683c-6.555,0.393-9.817,0.318-23.291,2.74
			c-13.314,2.394-16.413,4.733-16.413,4.733c-0.138-0.08-0.677-2.132-3.165-3.687c-6.094-3.809-7.671-4.96-12.821-7.539
			c-8.928-4.47-15.549-7.151-24.028-8.844c-5.789-1.155-9.361-2.664-14.858-2.678c-6.44-0.015-12.415-1.142-17.578,0.661
			C5.739,37.326,2.237,41.733-1.53,50.261C-6.734,62.04-5.06,69.142-4.087,84.29c0.811,12.623,1.847,18.496,4.748,26.904
			c2.315,6.71,2.406,7.164,1.831,9.106c-0.168,0.57-1.471,2.977-2.895,5.349c-4.079,6.796-10.021,18.999-13.169,27.046
			c-2.423,6.19-4.62,13.285-5.543,17.893c-0.517,2.583-2.584,8.865-2.168,12.617c0.849,7.658,0.921,10.522,2.549,13.353
			c0.478,0.831,2.099,6.909,10.377,10.235c4.561,1.833,9.628,3.341,10.388,3.569c6.909,2.079,21.528,3.954,33.528,2.598
			c5.479-0.62,8.301-0.821,13.658-2.352c5.411-1.546,12.03-2.675,17.485-1.257c2.057,0.535,4.631,2.312,7.623,3.425
			c11.364,4.225,30.255,13.244,39.711,14.511c2.396,0.32,8.601,1.448,11.8,1.174h0.178L125.657,228.549z"/>
		<path id="path3098" sodipodi:nodetypes="cssssssccsssscsscscscs" inkscape:connector-curvature="0" fill="#FFFFFF" d="
			M39.388,136.334c-1.686-0.248-3.312-0.941-5.174-2.206c-1.562-1.061-2.219-1.619-4.909-4.171
			c-5.174-4.909-8.857-10.146-10.295-14.634c-0.923-2.883-1.4-6.533-1.4-10.713c0.001-5.138,0.479-8.136,2.02-12.649
			c0.755-2.213,1.215-3.338,2.277-5.568c1.887-3.964,2.061-4.664,2.081-8.389c0.01-1.908-1.372-4.328-1.27-4.362
			c0.28-0.093,2.796,2.28,3.802,3.28c3.413,3.39,6.495,7.379,11.148,14.427c8.257,12.508,10.29,15.542,12.078,18.025
			c3.713,5.158,2.969,3.961,3.441,4.886c0.443,0.87,5.457,2.436,5.435,3.448c-0.04,1.818-4.612,4.426-6.209,7.811
			c-2.505,5.312-5.483,8.917-8.448,10.228C42.551,136.373,40.999,136.572,39.388,136.334z M43.747,132.734
			c0.086-0.104,0.129-0.189,0.094-0.189s-0.134,0.086-0.221,0.189c-0.086,0.104-0.129,0.189-0.094,0.189
			S43.66,132.838,43.747,132.734z"/>
	</g>
</g>
</svg>
