<?xml version="1.0" encoding="utf-8"?>
<!-- Generator: Adobe Illustrator 16.0.4, SVG Export Plug-In . SVG Version: 6.00 Build 0)  -->
<!DOCTYPE svg PUBLIC "-//W3C//DTD SVG 1.1//EN" "http://www.w3.org/Graphics/SVG/1.1/DTD/svg11.dtd">
<svg version="1.1" id="Calque_1" xmlns="http://www.w3.org/2000/svg" xmlns:xlink="http://www.w3.org/1999/xlink" x="0px" y="0px"
	 width="524.211px" height="595.28px" viewBox="0 0 524.211 595.28" enable-background="new 0 0 524.211 595.28"
	 xml:space="preserve">
<path fill="#049D4A" d="M261.944,71.382c-124.771,0-226.206,101.436-226.206,226.207c0,124.771,101.436,226.206,226.206,226.206
	S488.15,422.359,488.15,297.589l0,0C488.15,172.817,386.715,71.382,261.944,71.382z M261.944,505.699
	c-115.246,0-208.109-93.34-208.109-208.11s92.863-208.11,208.109-208.11s208.11,93.34,208.11,208.11
	C470.055,412.358,376.715,505.699,261.944,505.699z"/>
<g>
	<path fill="#049D4A" d="M367.494,197.417c-11.968-5.634-27.057-8.424-42.519-7.498c-8.647,0.519-12.952,0.42-30.727,3.615
		c-17.565,3.159-21.653,6.245-21.653,6.245c-0.182-0.105-0.893-2.813-4.176-4.865c-8.039-5.024-10.119-6.543-16.914-9.946
		c-11.778-5.896-20.513-9.433-31.698-11.667c-7.637-1.524-12.35-3.515-19.602-3.533c-8.495-0.021-16.378-1.507-23.19,0.872
		c-7.048,2.463-11.668,8.278-16.637,19.529c-6.866,15.54-4.658,24.908-3.375,44.893c1.071,16.653,2.437,24.399,6.264,35.492
		c3.055,8.852,3.174,9.451,2.416,12.014c-0.222,0.751-1.94,3.927-3.819,7.056c-5.381,8.966-13.221,25.064-17.373,35.681
		c-3.197,8.167-6.095,17.526-7.313,23.605c-0.682,3.408-3.409,11.694-2.86,16.646c1.121,10.102,1.216,13.881,3.364,17.615
		c0.63,1.097,2.769,9.115,13.69,13.503c6.017,2.418,12.702,4.407,13.704,4.708c9.115,2.742,28.401,5.216,44.232,3.428
		c7.228-0.817,10.951-1.083,18.017-3.104c7.139-2.039,15.871-3.528,23.067-1.658c2.713,0.706,6.109,3.051,10.057,4.519
		c14.992,5.574,39.914,17.473,52.388,19.144c3.162,0.422,11.348,1.91,15.567,1.55h0.235l-0.472,0.115
		c9.325,1.813,19.511-2.704,23.562-5.333c3.296-2.139,7.518-6.836,11.416-16.938c2.887-7.484,3.798-9.067,4.666-13.086
		c3.058-14.148,2.538-35.193-0.594-51.821c-0.826-4.386-1.068-8.622-2.832-13.865c-3.263-9.695-3.083-9.201,6.983-29.955
		c5.292-10.916,6.512-15.115,9.121-21.893c5.3-13.77,7.942-27.458,7.936-36.556c-0.006-7.947-0.6-13.989-4.561-22.399
		C379.871,205.035,373.992,200.475,367.494,197.417z M245.354,306.568c1.741,0.437,6.305,9.729,8.342,16.986
		c1.373,4.89,1.239,6.934-0.568,8.74c-0.591,0.593-1.378,1.108-1.911,1.25c-1.314,0.353-3.352,0.484-4.45,0.29
		c-1.501-0.266-2.5-0.988-3.574-2.584c-1.885-2.797-2.698-6.443-2.691-12.055C240.514,311.146,242.543,305.865,245.354,306.568z
		 M187.475,276.001c-1.217-3.803-1.846-8.618-1.846-14.133c0.001-6.778,0.631-10.733,2.665-16.687
		c0.996-2.919,1.604-4.403,3.004-7.346c2.489-5.229,2.718-6.153,2.745-11.066c0.013-2.518-1.81-5.71-1.676-5.755
		c0.37-0.123,3.689,3.008,5.017,4.327c4.503,4.472,8.569,9.735,14.706,19.033c10.893,16.5,13.575,20.503,15.934,23.78
		c4.898,6.804,3.917,5.226,4.54,6.445c0.584,1.148,7.199,3.213,7.17,4.549c-0.053,2.397-6.085,5.839-8.191,10.304
		c-3.305,7.008-7.232,11.764-11.146,13.494c-1.413,0.625-2.93,0.924-4.506,0.897c-1.246,0.244-2.591-0.073-4.435-0.875
		c-0.098-0.042-0.21-0.104-0.318-0.16c-1.154-0.481-2.338-1.139-3.605-1.999c-2.06-1.4-2.927-2.136-6.475-5.502
		C194.231,288.832,189.373,281.923,187.475,276.001z M231.931,327.384c-1.257,1.296-2.024,1.537-3.055,0.956
		c-1.196-0.675-2.676-2.152-3.298-3.294c-1.446-2.654-0.994-6.957,1.182-11.298c3.109-6.202,6.376-9.346,9.167-8.822
		c1.14,0.213,1.564,0.831,1.783,2.602C238.442,313.418,235.429,323.769,231.931,327.384z M287.287,344.615
		c-0.012,2.296-0.132,3.254-0.637,5.107c-1.682,6.143-4.716,13.558-9.248,18.921c-5.3,6.273-12.457,11.156-20.021,14.358
		c-5.108,2.163-10.952,4.136-16.373,2.966c-14.596-3.149-27.006-14.235-36.86-25.453c-2.666-3.031-3.781-7.134-5.54-10.767
		c-0.271-0.56-0.771-1.698-0.771-1.698s-0.978-3.571-0.318-5.166c1.127-2.728,3.736-5.257,6.624-5.874
		c2.687-0.574,7.866,2.469,7.866,2.469c5.513,1.63,13.033,5.702,19.996,6.433c4.589,0.48,10.236-0.529,13.772-1.413
		c3.538-0.884,8.829-2.812,15.814-5.521s11.158-10.192,17.044-9.315c5.883,0.873,6.721,4.501,8.312,8.004
		C287.907,339.777,287.302,341.819,287.287,344.615z M333.709,289.432c-3.383,8.534-8.188,15.195-13.901,19.272
		c-1.838,1.31-5.562,3.187-7.655,3.854c-3.677,1.177-9.039,1.666-13.152,1.202c-3.462-0.39-7.072-1.326-9.346-2.424
		c-5.539-2.678-10.743-8.025-13.782-14.167c-1.129-2.28-1.604-3.628-2.453-6.958c-0.578-2.274-1.154-4.953-1.279-5.958
		c-0.126-1.004-0.348-1.97-0.496-2.149c-0.396-0.476-0.476-3.379-3.624-3.542c-3.188-0.164-6.208,2.013-6.425,1.148
		c-0.233-0.93,0.081-1.633,1.263-2.802c1.551-1.537,3.275-2.735,8.659-6.014c10.521-6.403,18.044-12.87,27.819-23.904
		c3.047-3.438,6.54-7.854,11.279-14.254c2.445-3.303,5.515-7.332,6.818-8.951c2.729-3.391,7.132-8.007,9.237-9.682
		c2.708-2.156,5.028-2.845,6.274-1.866c1.212,0.955-1.781,0.482-3.566,4.487c-0.375,0.84-1.869,3.597-3.572,6.672
		c-3.986,7.66-4.519,8.982-4.438,11.479c1.444,0.771,3.569,1.949,4.768,3.394c6.116,7.368,8.022,11.44,9.265,19.791
		c0.355,2.386,0.42,4.479,0.424,13.428C335.828,283.658,335.758,284.266,333.709,289.432z"/>
	<path fill="#049D4A" d="M261.944,112.337c-102.388,0-184.774,82.863-184.774,185.252c0,102.388,82.862,184.775,184.774,184.775
		S446.72,399.977,446.72,297.589C446.72,195.2,364.332,112.337,261.944,112.337z M392.244,272.365
		c-2.396,8.387-5.812,16.298-11.46,26.54c-4.925,8.938-6.208,12.074-6.552,16.031c-0.229,2.626,0.066,4.687,1.769,12.34
		c3.383,15.212,4.516,25.721,4.263,39.56c-0.318,17.543-3.154,30.428-9.593,43.607c-5.594,11.45-12.616,18.568-20.48,20.759
		c-4.122,1.147-10.718,2.005-18.802,2.442c-5.715,0.314-8.546,0.311-13.967-0.01c-6.521-0.388-8.347-0.7-21.658-3.691
		c-4.974-1.119-10.101-2.406-11.39-2.861c-3.07-1.086-8.368-3.486-16.719-7.573c-14.924-7.306-18.703-8.524-26.3-8.48
		c-3.917,0.023-6.872,0.464-14.882,2.217c-9.587,2.101-15.634,2.728-26.261,2.729c-20.404,0.002-39.28-3.481-52.703-9.728
		c-4.37-2.033-6.388-3.373-10.702-7.099c-1.273-1.101-2.957-2.367-3.739-2.816c-1.685-0.961-3.673-3.753-5.605-7.862
		c-2.516-5.354-3.886-7.599-3.696-26.6c0.146-14.453,1.506-17.733,2.333-22.21c1.442-7.8,6.626-21.832,12.077-32.679
		c1.737-3.459,3.315-6.949,3.503-7.755c0.409-1.732,1.442-3.871,3.328-6.886c3.329-5.321,4.109-7.953,4.115-13.896
		c0.004-4.782-0.245-6.328-1.908-11.912c-1.125-3.776-1.577-6.246-2.128-11.622c-1.425-13.894-1.156-36.962,0.54-46.196
		c0.429-2.335,1.806-10.67,3.203-14.71c2.853-8.25,4.825-12.494,8.547-17.562c0.84-1.144,2.418-3.872,3.217-5.195
		c4.062-6.722,10.966-9.473,22.852-11.068c3.359-0.451,16.17-0.45,20.612,0.002c9.042,0.92,16.73,2.281,26.443,4.672
		c14.197,3.498,21.453,6.512,36.599,15.203c3.423,1.964,6.901,3.827,7.729,4.141c3.874,1.466,6.92,1.286,16.558-0.99
		c9.47-2.231,11.872-2.67,19.12-3.499c10.559-1.205,25.561-1.485,32.408-0.604c9.938,1.278,26.017,5.202,32.95,8.045
		c2.062,0.845,2.983,1.403,4.173,2.539c0.84,0.802,2.441,2.078,3.559,2.838c3.236,2.199,4.806,4.204,7.471,9.553
		c3.651,7.319,6.355,12.503,7.376,25.603c0.496,6.377-0.835,18.957-1.27,21.648C396.433,253.921,393.21,268.974,392.244,272.365z"/>
</g>
</svg>
