<?xml version="1.0" encoding="utf-8"?>
<!-- Generator: Adobe Illustrator 16.0.4, SVG Export Plug-In . SVG Version: 6.00 Build 0)  -->
<!DOCTYPE svg PUBLIC "-//W3C//DTD SVG 1.1//EN" "http://www.w3.org/Graphics/SVG/1.1/DTD/svg11.dtd">
<svg version="1.1" id="Calque_1" xmlns="http://www.w3.org/2000/svg" xmlns:xlink="http://www.w3.org/1999/xlink" x="0px" y="0px"
	 width="495.238px" height="595.28px" viewBox="0 0 495.238 595.28" enable-background="new 0 0 495.238 595.28"
	 xml:space="preserve">
<g>
	<path fill="#049D4A" d="M379.826,121.909h-19.049v19.049h9.524v352.406H98.854v-19.049h242.874c5.257,0,9.524-4.267,9.524-9.524
		V150.482v-38.098V93.336c0-5.258-4.268-9.524-9.524-9.524H51.231c-5.258,0-9.524,4.267-9.524,9.524v371.455
		c0,5.258,4.267,9.524,9.524,9.524h28.573v28.573c0,5.258,4.268,9.524,9.524,9.524h290.497c5.258,0,9.524-4.267,9.524-9.524V131.434
		C389.351,126.177,385.084,121.909,379.826,121.909z M60.756,102.86h271.448v352.406H60.756V102.86z"/>
	<path fill="#049D4A" d="M170.288,231.441v-80.959H94.092v80.959H170.288z M113.141,169.532h38.098v42.859h-38.098V169.532z"/>
	<rect x="198.861" y="212.392" fill="#049D4A" width="109.531" height="19.05"/>
	<rect x="198.861" y="150.482" fill="#049D4A" width="109.531" height="19.05"/>
	<rect x="98.854" y="274.301" fill="#049D4A" width="209.538" height="19.05"/>
	<rect x="98.854" y="336.21" fill="#049D4A" width="209.538" height="19.05"/>
	<rect x="94.092" y="398.12" fill="#049D4A" width="214.301" height="19.049"/>
	<path fill="#049D4A" d="M469.019,121.967l0.033-0.02l-19.049-33.335c-1.691-2.968-4.849-4.801-8.268-4.801
		c-3.42,0-6.577,1.833-8.268,4.801l-19.049,33.335l0.033,0.02c-0.795,1.396-1.29,2.985-1.29,4.705v185.728v28.573
		c0,5.258,4.267,9.524,9.524,9.524h38.098c5.258,0,9.524-4.267,9.524-9.524v-28.573V126.672
		C470.309,124.952,469.813,123.362,469.019,121.967z M432.211,136.196h19.049v166.679h-19.049V136.196z M432.211,331.448v-9.524
		h19.049v9.524H432.211z"/>
</g>
</svg>
