<?xml version="1.0" encoding="utf-8"?>
<!-- Generator: Adobe Illustrator 15.0.0, SVG Export Plug-In . SVG Version: 6.00 Build 0)  -->
<!DOCTYPE svg PUBLIC "-//W3C//DTD SVG 1.1//EN" "http://www.w3.org/Graphics/SVG/1.1/DTD/svg11.dtd">
<svg version="1.1" id="Calque_1" xmlns="http://www.w3.org/2000/svg" xmlns:xlink="http://www.w3.org/1999/xlink" x="0px" y="0px"
	 width="531.081px" height="595.28px" viewBox="0 0 531.081 595.28" enable-background="new 0 0 531.081 595.28"
	 xml:space="preserve">
<g>
	<path fill="#010202" d="M278.715,355.516v29.764c7.936-2.977,11.904-7.938,11.904-14.881c0-2.977-0.992-5.953-2.977-8.93
		C286.65,359.484,283.674,357.5,278.715,355.516z"/>
	<path fill="#010202" d="M242.997,294.996c0,6.945,3.969,11.906,10.914,14.881v-27.779
		C245.974,284.082,242.997,289.043,242.997,294.996z"/>
	<path fill="#010202" d="M359.076,169.987c20.836-23.812,31.748-54.567,31.748-86.316c0-10.913-8.928-19.842-19.842-19.842H158.666
		c-10.914,0-19.843,8.929-19.843,19.842c0,31.749,11.906,62.504,31.748,86.316c-65.48,39.685-107.15,117.072-107.15,201.404
		c0,142.867,115.088,159.732,201.403,159.732c86.316,0,201.402-16.865,201.402-159.732
		C466.227,287.059,424.559,209.672,359.076,169.987z M316.416,403.139c-8.93,8.928-21.828,14.881-37.701,15.873v16.867h-25.796
		V418.02c-20.834-2.977-39.685-12.896-56.551-27.779l22.819-27.779c12.898,10.914,23.811,17.857,34.725,20.834v-35.717
		c-16.866-3.968-29.764-9.921-37.701-17.857c-7.937-6.945-11.905-17.859-11.905-31.749c0-13.89,4.96-24.804,13.89-34.725
		c8.929-8.929,20.835-13.89,35.717-15.874v-11.906h25.796v12.898c15.873,1.984,32.74,8.929,48.613,19.843l-19.842,28.772
		c-9.922-6.945-19.844-11.906-28.771-14.882v35.717c17.857,4.961,30.756,10.914,38.693,17.858
		c7.936,7.937,12.896,18.851,12.896,32.741C331.297,382.303,325.344,393.217,316.416,403.139z"/>
</g>
</svg>
